<?xml version="1.0" encoding="UTF-8" standalone="no"?>
<svg
   xmlns:dc="http://purl.org/dc/elements/1.1/"
   xmlns:cc="http://creativecommons.org/ns#"
   xmlns:rdf="http://www.w3.org/1999/02/22-rdf-syntax-ns#"
   xmlns:svg="http://www.w3.org/2000/svg"
   xmlns="http://www.w3.org/2000/svg"
   xmlns:sodipodi="http://sodipodi.sourceforge.net/DTD/sodipodi-0.dtd"
   xmlns:inkscape="http://www.inkscape.org/namespaces/inkscape"
   width="64"
   height="64"
   version="1.1"
   id="svg39"
   sodipodi:docname="folder-dropbox.svg"
   viewBox="0 0 200 200"
   inkscape:version="1.0.1 (3bc2e813f5, 2020-09-07)">
  <metadata
     id="metadata43">
    <rdf:RDF>
      <cc:Work
         rdf:about="">
        <dc:format>image/svg+xml</dc:format>
        <dc:type
           rdf:resource="http://purl.org/dc/dcmitype/StillImage" />
        <dc:title></dc:title>
      </cc:Work>
    </rdf:RDF>
  </metadata>
  <sodipodi:namedview
     pagecolor="#ffffff"
     bordercolor="#666666"
     borderopacity="1"
     objecttolerance="10"
     gridtolerance="10"
     guidetolerance="10"
     inkscape:pageopacity="0"
     inkscape:pageshadow="2"
     inkscape:window-width="709"
     inkscape:window-height="480"
     id="namedview41"
     showgrid="false"
     inkscape:zoom="4.185"
     inkscape:cx="100"
     inkscape:cy="100"
     inkscape:window-x="0"
     inkscape:window-y="0"
     inkscape:window-maximized="0"
     inkscape:current-layer="svg39" />
  <defs
     id="defs19">
    <linearGradient
       id="c"
       x1="-26.201"
       x2="-26.201"
       y1="1070.2"
       y2="1082.6"
       gradientUnits="userSpaceOnUse">
      <stop
         stop-color="#78c3fd"
         offset="0"
         id="stop2" />
      <stop
         stop-color="#7bc6ff"
         offset="1"
         id="stop4" />
    </linearGradient>
    <linearGradient
       id="b"
       x1="-9.9119997"
       x2="-9.9119997"
       y1="1081.4"
       y2="1139.8"
       gradientUnits="userSpaceOnUse">
      <stop
         stop-color="#35a5fc"
         offset="0"
         id="stop7" />
      <stop
         stop-color="#45c0ff"
         offset=".5"
         id="stop9" />
      <stop
         stop-color="#4dacf6"
         offset="1"
         id="stop11" />
    </linearGradient>
    <linearGradient
       id="a"
       x1="-9.6169996"
       x2="-9.6169996"
       y1="1138.4"
       y2="1140.2"
       gradientUnits="userSpaceOnUse">
      <stop
         stop-opacity=".046784"
         offset="0"
         id="stop14" />
      <stop
         offset="1"
         id="stop16" />
    </linearGradient>
  </defs>
  <g
     transform="translate(-0.48658,-1.797)"
     color="#000000"
     id="g29">
    <path
       transform="matrix(2.2139,0,0,2.2139,109.5,-2344.9)"
       d="m -44.762,1070.2 h 22.131 c 3.287,0 4.652,7.071 7.728,7.071 h 51.522 a 3.276,3.276 0 0 1 3.283,3.283 v 50.508 c 0,1.819 -1.464,-2.02 -3.283,-2.02 h -81.38 a 3.276,3.276 0 0 1 -3.283,-3.283 v -52.275 a 3.276,3.276 0 0 1 3.283,-3.283 z"
       fill="url(#c)"
       id="path21" />
    <path
       transform="matrix(2.2139,0,0,2.2139,109.5,-2344.9)"
       d="m -44.762,1081.3 h 81.38 a 3.276,3.276 0 0 1 3.283,3.283 v 52.275 a 3.276,3.276 0 0 1 -3.283,3.283 h -81.38 a 3.276,3.276 0 0 1 -3.283,-3.283 v -52.275 a 3.276,3.276 0 0 1 3.283,-3.283 z"
       fill="url(#b)"
       id="path23" />
    <path
       d="m 3.16,165.84 v 2.214 H 197.84 V 165.84 H 3.15 Z m 0,4.87 v 1.176 c 0,0.359 0.019,0.694 0.068,1.038 h 194.55 c 0.05,-0.344 0.069,-0.679 0.069,-1.038 V 170.71 H 3.157 Z"
       opacity="0.08"
       style="text-indent:0;text-transform:none"
       id="path25" />
    <path
       transform="matrix(2.2139,0,0,2.2139,109.5,-2344.9)"
       d="m -47.75,1138.2 a 3.28,3.28 0 0 0 3,1.938 h 81.375 c 1.34,0 2.488,-0.793 3,-1.938 z"
       fill="url(#a)"
       opacity="0.25"
       style="text-indent:0;text-transform:none"
       id="path27" />
  </g>
  <g
     transform="translate(-4.83,-849.91)"
     opacity="0.15"
     id="g37">
    <path
       d="m 87.372,921.28 -24.878,16.243 17.201,13.775 25.084,-15.488 z"
       id="path31" />
    <path
       d="m 62.494,965.07 24.878,16.243 17.407,-14.53 -25.084,-15.489 z m 42.286,1.72 17.408,14.53 24.877,-16.243 -17.201,-13.775 z m 42.28,-29.27 -24.877,-16.243 -17.408,14.53 25.084,15.488 z"
       id="path33" />
    <path
       d="m 104.83,969.91 -17.458,14.487 -7.47,-4.878 v 5.469 l 24.928,14.95 24.93,-14.95 v -5.469 l -7.47,4.878 z"
       id="path35" />
  </g>
</svg>
