<?xml version="1.0" encoding="UTF-8" standalone="no"?>
<svg
   xmlns:dc="http://purl.org/dc/elements/1.1/"
   xmlns:cc="http://creativecommons.org/ns#"
   xmlns:rdf="http://www.w3.org/1999/02/22-rdf-syntax-ns#"
   xmlns:svg="http://www.w3.org/2000/svg"
   xmlns="http://www.w3.org/2000/svg"
   xmlns:sodipodi="http://sodipodi.sourceforge.net/DTD/sodipodi-0.dtd"
   xmlns:inkscape="http://www.inkscape.org/namespaces/inkscape"
   width="64"
   height="64"
   version="1.1"
   id="svg33"
   sodipodi:docname="folder-network.svg"
   viewBox="0 0 200 200"
   inkscape:version="1.0.1 (3bc2e813f5, 2020-09-07)">
  <metadata
     id="metadata37">
    <rdf:RDF>
      <cc:Work
         rdf:about="">
        <dc:format>image/svg+xml</dc:format>
        <dc:type
           rdf:resource="http://purl.org/dc/dcmitype/StillImage" />
        <dc:title></dc:title>
      </cc:Work>
    </rdf:RDF>
  </metadata>
  <sodipodi:namedview
     pagecolor="#ffffff"
     bordercolor="#666666"
     borderopacity="1"
     objecttolerance="10"
     gridtolerance="10"
     guidetolerance="10"
     inkscape:pageopacity="0"
     inkscape:pageshadow="2"
     inkscape:window-width="709"
     inkscape:window-height="480"
     id="namedview35"
     showgrid="false"
     inkscape:zoom="4.185"
     inkscape:cx="100"
     inkscape:cy="100"
     inkscape:window-x="0"
     inkscape:window-y="0"
     inkscape:window-maximized="0"
     inkscape:current-layer="svg33" />
  <defs
     id="defs19">
    <linearGradient
       id="c"
       x1="-26.201"
       x2="-26.201"
       y1="1070.2"
       y2="1082.6"
       gradientUnits="userSpaceOnUse">
      <stop
         stop-color="#78c3fd"
         offset="0"
         id="stop2" />
      <stop
         stop-color="#7bc6ff"
         offset="1"
         id="stop4" />
    </linearGradient>
    <linearGradient
       id="b"
       x1="-9.9119997"
       x2="-9.9119997"
       y1="1081.4"
       y2="1139.8"
       gradientUnits="userSpaceOnUse">
      <stop
         stop-color="#35a5fc"
         offset="0"
         id="stop7" />
      <stop
         stop-color="#45c0ff"
         offset=".5"
         id="stop9" />
      <stop
         stop-color="#4dacf6"
         offset="1"
         id="stop11" />
    </linearGradient>
    <linearGradient
       id="a"
       x1="-9.6169996"
       x2="-9.6169996"
       y1="1138.4"
       y2="1140.2"
       gradientUnits="userSpaceOnUse">
      <stop
         stop-opacity=".046784"
         offset="0"
         id="stop14" />
      <stop
         offset="1"
         id="stop16" />
    </linearGradient>
  </defs>
  <g
     transform="translate(-0.48658,-1.797)"
     color="#000000"
     id="g29">
    <path
       transform="matrix(2.2139,0,0,2.2139,109.5,-2344.9)"
       d="m -44.762,1070.2 h 22.131 c 3.287,0 4.652,7.071 7.728,7.071 h 51.522 a 3.276,3.276 0 0 1 3.283,3.283 v 50.508 c 0,1.819 -1.464,-2.02 -3.283,-2.02 h -81.38 a 3.276,3.276 0 0 1 -3.283,-3.283 v -52.275 a 3.276,3.276 0 0 1 3.283,-3.283 z"
       fill="url(#c)"
       id="path21" />
    <path
       transform="matrix(2.2139,0,0,2.2139,109.5,-2344.9)"
       d="m -44.762,1081.3 h 81.38 a 3.276,3.276 0 0 1 3.283,3.283 v 52.275 a 3.276,3.276 0 0 1 -3.283,3.283 h -81.38 a 3.276,3.276 0 0 1 -3.283,-3.283 v -52.275 a 3.276,3.276 0 0 1 3.283,-3.283 z"
       fill="url(#b)"
       id="path23" />
    <path
       d="m 3.16,165.84 v 2.214 H 197.84 V 165.84 H 3.15 Z m 0,4.87 v 1.176 c 0,0.359 0.019,0.694 0.068,1.038 h 194.55 c 0.05,-0.344 0.069,-0.679 0.069,-1.038 V 170.71 H 3.157 Z"
       opacity="0.08"
       style="text-indent:0;text-transform:none"
       id="path25" />
    <path
       transform="matrix(2.2139,0,0,2.2139,109.5,-2344.9)"
       d="m -47.75,1138.2 a 3.28,3.28 0 0 0 3,1.938 h 81.375 c 1.34,0 2.488,-0.793 3,-1.938 z"
       fill="url(#a)"
       opacity="0.25"
       style="text-indent:0;text-transform:none"
       id="path27" />
  </g>
  <path
     class="ColorScheme-Text"
     transform="matrix(2.2139,0,0,2.2139,109.5,-2344.9)"
     d="m -4.073,1096.2 c -7.659,0 -14.893,3.38 -19.849,9.275 a 1.85,1.85 0 0 0 1.42,3.04 c 0.528,0 1.052,-0.224 1.419,-0.659 4.247,-5.053 10.448,-7.953 17.01,-7.953 6.562,0 12.763,2.901 17.01,7.953 0.366,0.438 0.89,0.66 1.419,0.66 a 1.848,1.848 0 0 0 1.419,-3.041 c -4.954,-5.895 -12.19,-9.275 -19.85,-9.275 z m 0,7.844 c -5.47,0 -10.637,2.416 -14.176,6.625 a 1.8514284,1.8514284 0 1 0 2.835,2.382 14.794,14.794 0 0 1 11.34,-5.303 c 4.376,0 8.51,1.934 11.342,5.303 0.366,0.438 0.892,0.66 1.419,0.66 a 1.85,1.85 0 0 0 1.415,-3.041 c -3.54,-4.21 -8.704,-6.626 -14.176,-6.626 z m 0,8.15 a 11.09,11.09 0 0 0 -8.507,3.971 1.85,1.85 0 0 0 0.23,2.609 1.843,1.843 0 0 0 2.609,-0.225 7.391,7.391 0 0 1 5.668,-2.65 c 2.187,0 4.253,0.965 5.67,2.65 a 1.846,1.846 0 0 0 2.608,0.225 1.85,1.85 0 0 0 0.23,-2.609 11.09,11.09 0 0 0 -8.508,-3.971 z m -0.158,7.031 c -1.448,0.14 -2.842,1.222 -2.89,2.835 a 3.049,3.049 0 0 0 6.097,0 c -0.257,-2.165 -1.758,-2.973 -3.207,-2.835 z"
     opacity="0.15"
     id="path31" />
</svg>
