<?xml version="1.0" encoding="UTF-8" standalone="no"?>
<svg
   xmlns:dc="http://purl.org/dc/elements/1.1/"
   xmlns:cc="http://creativecommons.org/ns#"
   xmlns:rdf="http://www.w3.org/1999/02/22-rdf-syntax-ns#"
   xmlns:svg="http://www.w3.org/2000/svg"
   xmlns="http://www.w3.org/2000/svg"
   xmlns:sodipodi="http://sodipodi.sourceforge.net/DTD/sodipodi-0.dtd"
   xmlns:inkscape="http://www.inkscape.org/namespaces/inkscape"
   width="64"
   height="64"
   version="1.1"
   viewBox="0 0 200 200"
   id="svg34"
   sodipodi:docname="folder-image-people.svg"
   inkscape:version="1.0.1 (3bc2e813f5, 2020-09-07)">
  <metadata
     id="metadata38">
    <rdf:RDF>
      <cc:Work
         rdf:about="">
        <dc:format>image/svg+xml</dc:format>
        <dc:type
           rdf:resource="http://purl.org/dc/dcmitype/StillImage" />
        <dc:title></dc:title>
      </cc:Work>
    </rdf:RDF>
  </metadata>
  <sodipodi:namedview
     pagecolor="#ffffff"
     bordercolor="#666666"
     borderopacity="1"
     objecttolerance="10"
     gridtolerance="10"
     guidetolerance="10"
     inkscape:pageopacity="0"
     inkscape:pageshadow="2"
     inkscape:window-width="709"
     inkscape:window-height="480"
     id="namedview36"
     showgrid="false"
     inkscape:zoom="4.185"
     inkscape:cx="100"
     inkscape:cy="100"
     inkscape:window-x="0"
     inkscape:window-y="0"
     inkscape:window-maximized="0"
     inkscape:current-layer="svg34" />
  <defs
     id="defs20">
    <style
       id="current-color-scheme"
       type="text/css">.ColorScheme-Text { color:#565656; } .ColorScheme-Highlight { color:#5294e2; }</style>
    <linearGradient
       id="a"
       x1="-26.201"
       x2="-26.201"
       y1="1070.2"
       y2="1082.6"
       gradientUnits="userSpaceOnUse">
      <stop
         stop-color="#78c3fd"
         offset="0"
         id="stop3" />
      <stop
         stop-color="#7bc6ff"
         offset="1"
         id="stop5" />
    </linearGradient>
    <linearGradient
       id="b"
       x1="-9.9119997"
       x2="-9.9119997"
       y1="1081.4"
       y2="1139.8"
       gradientUnits="userSpaceOnUse">
      <stop
         stop-color="#35a5fc"
         offset="0"
         id="stop8" />
      <stop
         stop-color="#45c0ff"
         offset=".5"
         id="stop10" />
      <stop
         stop-color="#4dacf6"
         offset="1"
         id="stop12" />
    </linearGradient>
    <linearGradient
       id="c"
       x1="-9.6169996"
       x2="-9.6169996"
       y1="1138.4"
       y2="1140.2"
       gradientUnits="userSpaceOnUse">
      <stop
         stop-opacity=".046784"
         offset="0"
         id="stop15" />
      <stop
         offset="1"
         id="stop17" />
    </linearGradient>
  </defs>
  <g
     transform="translate(-0.48658,-1.797)"
     color="#000000"
     id="g30">
    <path
       transform="matrix(2.2139,0,0,2.2139,109.5,-2344.9)"
       d="m -44.762,1070.2 h 22.131 c 3.287,0 4.652,7.071 7.728,7.071 h 51.522 a 3.276,3.276 0 0 1 3.283,3.283 v 50.508 c 0,1.819 -1.464,-2.02 -3.283,-2.02 h -81.38 a 3.276,3.276 0 0 1 -3.283,-3.283 v -52.275 a 3.276,3.276 0 0 1 3.283,-3.283 z"
       fill="url(#a)"
       id="path22" />
    <path
       transform="matrix(2.2139,0,0,2.2139,109.5,-2344.9)"
       d="m -44.762,1081.3 h 81.38 a 3.276,3.276 0 0 1 3.283,3.283 v 52.275 a 3.276,3.276 0 0 1 -3.283,3.283 h -81.38 a 3.276,3.276 0 0 1 -3.283,-3.283 v -52.275 a 3.276,3.276 0 0 1 3.283,-3.283 z"
       fill="url(#b)"
       id="path24" />
    <path
       d="m 3.16,165.84 v 2.214 H 197.84 V 165.84 H 3.15 Z m 0,4.87 v 1.176 c 0,0.359 0.019,0.694 0.068,1.038 h 194.55 c 0.05,-0.344 0.069,-0.679 0.069,-1.038 V 170.71 H 3.157 Z"
       opacity="0.08"
       style="text-indent:0;text-transform:none"
       id="path26" />
    <path
       transform="matrix(2.2139,0,0,2.2139,109.5,-2344.9)"
       d="m -47.75,1138.2 a 3.28,3.28 0 0 0 3,1.938 h 81.375 c 1.34,0 2.488,-0.793 3,-1.938 z"
       fill="url(#c)"
       opacity="0.25"
       style="text-indent:0;text-transform:none"
       id="path28" />
  </g>
  <path
     d="m 143.92,153 c 0,-14.383 -24.407,-21.721 -34.142,-24.33 0,0 0.40342,-8.0645 1.3444,-11.022 0.94098,-2.9575 1.0751,-6.3177 1.4786,-7.2586 0.4035,-0.9409 5.1557,-5.2425 5.425,-9.2748 -0.0651,-2.4067 -0.54053,-2.9759 -1.7281,-2.9759 v -12.499 c 0,-6.7477 -9.838,-12.64 -16.295,-12.64 -6.4577,0 -16.295,5.8925 -16.295,12.64 v 12.499 c -1.1886,0 -1.664,0.57011 -1.7281,2.9759 0.26928,4.0322 5.0206,8.3338 5.425,9.2748 0.40244,0.94099 0.53658,4.3006 1.4776,7.2586 0.94099,2.9571 1.3444,11.022 1.3444,11.022 -9.7354,2.6089 -34.142,9.9465 -34.142,24.33 z"
     fill-rule="evenodd"
     opacity="0.15"
     id="path32" />
</svg>
