<?xml version="1.0" encoding="UTF-8" standalone="no"?>
<svg
   xmlns:dc="http://purl.org/dc/elements/1.1/"
   xmlns:cc="http://creativecommons.org/ns#"
   xmlns:rdf="http://www.w3.org/1999/02/22-rdf-syntax-ns#"
   xmlns:svg="http://www.w3.org/2000/svg"
   xmlns="http://www.w3.org/2000/svg"
   xmlns:sodipodi="http://sodipodi.sourceforge.net/DTD/sodipodi-0.dtd"
   xmlns:inkscape="http://www.inkscape.org/namespaces/inkscape"
   width="64"
   height="64"
   version="1.1"
   id="svg31"
   sodipodi:docname="folder-open.svg"
   viewBox="0 0 200 200"
   inkscape:version="1.0.1 (3bc2e813f5, 2020-09-07)">
  <metadata
     id="metadata35">
    <rdf:RDF>
      <cc:Work
         rdf:about="">
        <dc:format>image/svg+xml</dc:format>
        <dc:type
           rdf:resource="http://purl.org/dc/dcmitype/StillImage" />
        <dc:title></dc:title>
      </cc:Work>
    </rdf:RDF>
  </metadata>
  <sodipodi:namedview
     pagecolor="#ffffff"
     bordercolor="#666666"
     borderopacity="1"
     objecttolerance="10"
     gridtolerance="10"
     guidetolerance="10"
     inkscape:pageopacity="0"
     inkscape:pageshadow="2"
     inkscape:window-width="709"
     inkscape:window-height="480"
     id="namedview33"
     showgrid="false"
     inkscape:zoom="4.185"
     inkscape:cx="100"
     inkscape:cy="100"
     inkscape:window-x="0"
     inkscape:window-y="0"
     inkscape:window-maximized="0"
     inkscape:current-layer="svg31" />
  <defs
     id="defs19">
    <linearGradient
       id="c"
       x1="-4.1915998"
       x2="-4.1915998"
       y1="1096.7"
       y2="1140.1"
       gradientUnits="userSpaceOnUse">
      <stop
         stop-color="#35a5fc"
         offset="0"
         id="stop2" />
      <stop
         stop-color="#45c0ff"
         offset=".5"
         id="stop4" />
      <stop
         stop-color="#4dacf6"
         offset="1"
         id="stop6" />
    </linearGradient>
    <linearGradient
       id="b"
       x1="-4.0710001"
       x2="-4.0710001"
       y1="1070.2"
       y2="1131.6"
       gradientUnits="userSpaceOnUse">
      <stop
         stop-color="#78c3fd"
         offset="0"
         id="stop9" />
      <stop
         stop-color="#7bc6ff"
         offset="1"
         id="stop11" />
    </linearGradient>
    <linearGradient
       id="a"
       x1="-4.0625"
       x2="-4.0625"
       y1="1138.2"
       y2="1140.1"
       gradientUnits="userSpaceOnUse">
      <stop
         stop-opacity=".046784"
         offset="0"
         id="stop14" />
      <stop
         offset="1"
         id="stop16" />
    </linearGradient>
  </defs>
  <g
     id="g29">
    <path
       transform="matrix(2.2139,0,0,2.2139,109.5,-2344.9)"
       d="m -44.762,1070.2 h 22.131 c 3.287,0 4.652,7.071 7.728,7.071 h 51.522 a 3.276,3.276 0 0 1 3.283,3.283 v 50.508 c 0,1.819 -1.464,-2.02 -3.283,-2.02 h -81.38 a 3.276,3.276 0 0 1 -3.283,-3.283 v -52.275 a 3.276,3.276 0 0 1 3.283,-3.283 z"
       fill="url(#b)"
       id="path21" />
    <path
       transform="matrix(2.2139,0,0,2.2139,109.5,-2344.9)"
       d="m -45.855,1096.7 h 83.327 c 1.819,0 3.313,1.08 3.283,2.422 l -0.854,38.56 c -0.03,1.342 -1.464,2.422 -3.283,2.422 h -81.38 c -1.819,0 -3.245,-1.08 -3.283,-2.421 l -1.093,-38.561 c -0.038,-1.341 1.464,-2.422 3.283,-2.422 z"
       fill="url(#c)"
       id="path23" />
    <path
       d="m 3.16,165.845 v 2.214 h 194.685 v -2.214 H 3.159 Z m 0,4.87 v 1.176 c 0,0.359 0.019,0.694 0.068,1.038 h 194.547 c 0.05,-0.344 0.069,-0.679 0.069,-1.038 v -1.176 H 3.158 Z"
       opacity="0.1"
       style="text-indent:0;text-transform:none"
       id="path25" />
    <path
       transform="matrix(2.2139,0,0,2.2139,109.5,-2344.9)"
       d="m -47.75,1138.2 a 3.28,3.28 0 0 0 3,1.938 h 81.375 c 1.34,0 2.488,-0.793 3,-1.938 z"
       fill="url(#a)"
       opacity="0.25"
       style="text-indent:0;text-transform:none"
       id="path27" />
  </g>
</svg>
