<?xml version="1.0" encoding="UTF-8" standalone="no"?>
<svg
   xmlns:dc="http://purl.org/dc/elements/1.1/"
   xmlns:cc="http://creativecommons.org/ns#"
   xmlns:rdf="http://www.w3.org/1999/02/22-rdf-syntax-ns#"
   xmlns:svg="http://www.w3.org/2000/svg"
   xmlns="http://www.w3.org/2000/svg"
   xmlns:sodipodi="http://sodipodi.sourceforge.net/DTD/sodipodi-0.dtd"
   xmlns:inkscape="http://www.inkscape.org/namespaces/inkscape"
   width="64"
   height="64"
   version="1.1"
   id="svg33"
   sodipodi:docname="user-desktop.svg"
   viewBox="0 0 200 200"
   inkscape:version="1.0.1 (3bc2e813f5, 2020-09-07)">
  <metadata
     id="metadata37">
    <rdf:RDF>
      <cc:Work
         rdf:about="">
        <dc:format>image/svg+xml</dc:format>
        <dc:type
           rdf:resource="http://purl.org/dc/dcmitype/StillImage" />
        <dc:title></dc:title>
      </cc:Work>
    </rdf:RDF>
  </metadata>
  <sodipodi:namedview
     pagecolor="#ffffff"
     bordercolor="#666666"
     borderopacity="1"
     objecttolerance="10"
     gridtolerance="10"
     guidetolerance="10"
     inkscape:pageopacity="0"
     inkscape:pageshadow="2"
     inkscape:window-width="709"
     inkscape:window-height="480"
     id="namedview35"
     showgrid="false"
     inkscape:zoom="4.185"
     inkscape:cx="100"
     inkscape:cy="100"
     inkscape:window-x="0"
     inkscape:window-y="0"
     inkscape:window-maximized="0"
     inkscape:current-layer="svg33" />
  <defs
     id="defs19">
    <linearGradient
       id="c"
       x1="-26.201"
       x2="-26.201"
       y1="1070.2"
       y2="1082.6"
       gradientUnits="userSpaceOnUse">
      <stop
         stop-color="#78c3fd"
         offset="0"
         id="stop2" />
      <stop
         stop-color="#7bc6ff"
         offset="1"
         id="stop4" />
    </linearGradient>
    <linearGradient
       id="b"
       x1="-9.9119997"
       x2="-9.9119997"
       y1="1081.4"
       y2="1139.8"
       gradientUnits="userSpaceOnUse">
      <stop
         stop-color="#35a5fc"
         offset="0"
         id="stop7" />
      <stop
         stop-color="#45c0ff"
         offset=".5"
         id="stop9" />
      <stop
         stop-color="#4dacf6"
         offset="1"
         id="stop11" />
    </linearGradient>
    <linearGradient
       id="a"
       x1="-9.6169996"
       x2="-9.6169996"
       y1="1138.4"
       y2="1140.2"
       gradientUnits="userSpaceOnUse">
      <stop
         stop-opacity=".046784"
         offset="0"
         id="stop14" />
      <stop
         offset="1"
         id="stop16" />
    </linearGradient>
  </defs>
  <g
     transform="translate(-0.48658,-1.797)"
     color="#000000"
     id="g29">
    <path
       transform="matrix(2.2139,0,0,2.2139,109.5,-2344.9)"
       d="m -44.762,1070.2 h 22.131 c 3.287,0 4.652,7.071 7.728,7.071 h 51.522 a 3.276,3.276 0 0 1 3.283,3.283 v 50.508 c 0,1.819 -1.464,-2.02 -3.283,-2.02 h -81.38 a 3.276,3.276 0 0 1 -3.283,-3.283 v -52.275 a 3.276,3.276 0 0 1 3.283,-3.283 z"
       fill="url(#c)"
       id="path21" />
    <path
       transform="matrix(2.2139,0,0,2.2139,109.5,-2344.9)"
       d="m -44.762,1081.3 h 81.38 a 3.276,3.276 0 0 1 3.283,3.283 v 52.275 a 3.276,3.276 0 0 1 -3.283,3.283 h -81.38 a 3.276,3.276 0 0 1 -3.283,-3.283 v -52.275 a 3.276,3.276 0 0 1 3.283,-3.283 z"
       fill="url(#b)"
       id="path23" />
    <path
       d="m 3.16,165.84 v 2.214 H 197.84 V 165.84 H 3.15 Z m 0,4.87 v 1.176 c 0,0.359 0.019,0.694 0.068,1.038 h 194.55 c 0.05,-0.344 0.069,-0.679 0.069,-1.038 V 170.71 H 3.157 Z"
       opacity="0.08"
       style="text-indent:0;text-transform:none"
       id="path25" />
    <path
       transform="matrix(2.2139,0,0,2.2139,109.5,-2344.9)"
       d="m -47.75,1138.2 a 3.28,3.28 0 0 0 3,1.938 h 81.375 c 1.34,0 2.488,-0.793 3,-1.938 z"
       fill="url(#a)"
       opacity="0.25"
       style="text-indent:0;text-transform:none"
       id="path27" />
  </g>
  <path
     transform="translate(0,-852.36)"
     d="m 56.666,925.522 c -3.556,0 -5.178,1.184 -5.178,3.305 l 0.002,0.008 v 65.805 c 0,0.068 -0.01,0.119 -0.01,0.19 0,5.782 4.918,7.532 7.543,7.532 h 8.149 c 0.114,0.021 0.231,0.035 0.351,0.035 h 67.127 c 0.12,0 0.236,-0.014 0.35,-0.035 h 6.057 c 2.625,0 7.543,-1.75 7.543,-7.531 0,-0.087 -0.01,-0.147 -0.012,-0.229 V 928.88 l 0.014,-0.053 c 0,-2.114 -1.614,-3.296 -5.149,-3.303 v -0.002 z m 2.322,16.697 h 82.114 c 1.706,0 2.695,1.428 3.195,3.24 v 49.202 c -0.07,1.932 -1.476,4.17 -3.447,4.17 h -4.272 v -17.364 c 0,-1.067 -0.86,-1.927 -1.927,-1.927 H 67.524 c -1.068,0 -1.928,0.86 -1.928,1.927 v 17.364 H 59.23 c -1.977,0 -3.387,-2.252 -3.45,-4.188 l -0.002,-0.002 v -49.138 c 0.496,-1.834 1.49,-3.284 3.21,-3.284 z"
     opacity="0.15"
     overflow="visible"
     id="path31" />
</svg>
