<?xml version="1.0" encoding="UTF-8" standalone="no"?>
<svg
   width="22px"
   height="22px"
   viewBox="0 0 22 22"
   version="1.1"
   id="svg24"
   sodipodi:docname="folder-templates.svg"
   inkscape:version="1.2.2 (b0a8486541, 2022-12-01)"
   xmlns:inkscape="http://www.inkscape.org/namespaces/inkscape"
   xmlns:sodipodi="http://sodipodi.sourceforge.net/DTD/sodipodi-0.dtd"
   xmlns="http://www.w3.org/2000/svg"
   xmlns:svg="http://www.w3.org/2000/svg">
  <sodipodi:namedview
     id="namedview26"
     pagecolor="#ffffff"
     bordercolor="#666666"
     borderopacity="1.0"
     inkscape:showpageshadow="2"
     inkscape:pageopacity="0.0"
     inkscape:pagecheckerboard="0"
     inkscape:deskcolor="#d1d1d1"
     showgrid="false"
     inkscape:zoom="47.863636"
     inkscape:cx="13.778727"
     inkscape:cy="10.1434"
     inkscape:window-width="3840"
     inkscape:window-height="2095"
     inkscape:window-x="0"
     inkscape:window-y="0"
     inkscape:window-maximized="1"
     inkscape:current-layer="svg24" />
  <!-- Generator: Sketch 41.2 (35397) - http://www.bohemiancoding.com/sketch -->
  <title
     id="title2">folder-download</title>
  <desc
     id="desc4">Created with Sketch.</desc>
  <defs
     id="defs13">
    <linearGradient
       x1="8.742899"
       y1="3.5300904"
       x2="8.742899"
       y2="18.827149"
       id="linearGradient-1"
       gradientTransform="scale(1.1766968,0.84983659)"
       gradientUnits="userSpaceOnUse">
      <stop
         stop-color="#6AC4FF"
         offset="0%"
         id="stop6" />
      <stop
         stop-color="#6CCDFC"
         offset="96.2651467%"
         id="stop8" />
      <stop
         stop-color="#6AC4FF"
         offset="100%"
         id="stop10" />
    </linearGradient>
  </defs>
  <g
     id="g18073">
    <polygon
       id="Combined-Shape"
       fill="#6ac4ff"
       points="11,0 16,0 16,14.995132 2,14.995132 2,1 10,1 "
       transform="translate(2,3)"
       style="fill-rule:evenodd;stroke:none;stroke-width:1" />
    <polygon
       id="Rectangle-279"
       fill="#ffffff"
       points="17.000001,2 17.000001,15 1,15 1,2 "
       transform="translate(2,3)"
       style="fill-rule:evenodd;stroke:none;stroke-width:1" />
    <polygon
       id="polygon17"
       fill="url(#linearGradient-1)"
       points="18,3 18,16 1.7166712e-11,16 0,3 "
       style="fill:url(#linearGradient-1);fill-rule:evenodd;stroke:none;stroke-width:1"
       transform="translate(2,3)" />
    <path
       class="ColorScheme-Text"
       d="m 10.843734,8.0671442 c -0.0614,0 -0.122792,0.022702 -0.179323,0.056994 l -0.314165,0.180714 a 0.42120267,0.42120267 0 0 0 -0.15129,0.5766632 l 2.72577,4.7595006 0.998097,-0.672581 -2.686615,-4.6862878 C 11.163458,8.155416 11.039971,8.0766428 10.905363,8.0673755 c -0.02016,-0.00256 -0.04124,0 -0.06163,0 z M 9.8792321,9.6893995 c -0.134377,0.01436 -0.2636565,0.08271 -0.3366375,0.209211 l -0.274778,0.4747235 1.0377144,0.604697 0.274778,-0.474723 A 0.42120267,0.42120267 0 0 0 10.428787,9.9268765 l -0.308371,-0.180714 a 0.42166604,0.42166604 0 0 0 -0.2411839,-0.05723 z m -0.7854095,0.9948545 -2.349746,4.109624 1.037484,0.599136 2.3499754,-4.104061 z m -3.432177,1.842821 v 1.209626 h 1.391034 l 0.689726,-1.209394 z m 4.0605045,0 -0.6899565,1.209626 h 3.6513484 l -0.695749,-1.209394 z m 4.2456199,0 0.695517,1.209626 h 1.28446 v -1.209394 z m 0.134609,0.751817 -0.998329,0.672581 0.49928,0.870671 0.998329,-0.672581 z m 0.678836,1.187153 -0.998561,0.67258 c 0.02989,1.202443 0.941103,1.052775 1.29002,1.803202 0.66424,-0.712894 0.463369,-1.808994 -0.291691,-2.476014 z m -8.2169264,0.638754 -0.543995,1.961442 1.581479,-1.356745 z"
       opacity="0.15"
       id="path187"
       style="opacity:1;fill:#2ca7f8;fill-opacity:1;stroke-width:0.231685" />
  </g>
</svg>
